<mxfile host="app.diagrams.net" agent="Mozilla/5.0 (Windows NT 10.0; Win64; x64) AppleWebKit/537.36 (KHTML, like Gecko) Chrome/134.0.0.0 Safari/537.36 Edg/134.0.0.0" version="26.1.1">
  <diagram name="Страница — 1" id="mH7uCzz7MIZxPLPmZUTO">
    <mxGraphModel dx="2884" dy="1530" grid="0" gridSize="10" guides="1" tooltips="1" connect="1" arrows="1" fold="1" page="0" pageScale="1" pageWidth="827" pageHeight="1169" math="0" shadow="0">
      <root>
        <mxCell id="0" />
        <mxCell id="1" parent="0" />
        <mxCell id="8buhsUW7cumHq8WopxRq-1" value="Неавторизированный&amp;nbsp;&lt;div&gt;пользователь&lt;/div&gt;" style="shape=umlActor;verticalLabelPosition=bottom;verticalAlign=top;html=1;outlineConnect=0;" parent="1" vertex="1">
          <mxGeometry x="596" y="240" width="30" height="60" as="geometry" />
        </mxCell>
        <mxCell id="8buhsUW7cumHq8WopxRq-2" value="Авторизированный&amp;nbsp;&lt;div&gt;пользователь&lt;/div&gt;" style="shape=umlActor;verticalLabelPosition=bottom;verticalAlign=top;html=1;outlineConnect=0;" parent="1" vertex="1">
          <mxGeometry x="407" y="156" width="30" height="60" as="geometry" />
        </mxCell>
        <mxCell id="8buhsUW7cumHq8WopxRq-3" value="Создать проект" style="ellipse;whiteSpace=wrap;html=1;" parent="1" vertex="1">
          <mxGeometry x="233" y="118" width="120" height="80" as="geometry" />
        </mxCell>
        <mxCell id="8buhsUW7cumHq8WopxRq-4" value="Добавить участника в проект" style="ellipse;whiteSpace=wrap;html=1;" parent="1" vertex="1">
          <mxGeometry x="-283" y="231" width="120" height="80" as="geometry" />
        </mxCell>
        <mxCell id="8buhsUW7cumHq8WopxRq-5" value="Создатель&lt;div&gt;проекта&lt;/div&gt;" style="shape=umlActor;verticalLabelPosition=bottom;verticalAlign=top;html=1;outlineConnect=0;" parent="1" vertex="1">
          <mxGeometry x="-148" y="142" width="30" height="60" as="geometry" />
        </mxCell>
        <mxCell id="8buhsUW7cumHq8WopxRq-6" value="Создать задачу" style="ellipse;whiteSpace=wrap;html=1;" parent="1" vertex="1">
          <mxGeometry x="317" y="20" width="120" height="80" as="geometry" />
        </mxCell>
        <mxCell id="8buhsUW7cumHq8WopxRq-7" value="Отметить задачу, как выполненную" style="ellipse;whiteSpace=wrap;html=1;" parent="1" vertex="1">
          <mxGeometry x="431" y="-75" width="120" height="80" as="geometry" />
        </mxCell>
        <mxCell id="8buhsUW7cumHq8WopxRq-8" value="Зарегистрироваться в системе" style="ellipse;whiteSpace=wrap;html=1;" parent="1" vertex="1">
          <mxGeometry x="599" y="103" width="120" height="80" as="geometry" />
        </mxCell>
        <mxCell id="8buhsUW7cumHq8WopxRq-9" value="Осуществить вход в систему" style="ellipse;whiteSpace=wrap;html=1;" parent="1" vertex="1">
          <mxGeometry x="719" y="183" width="120" height="80" as="geometry" />
        </mxCell>
        <mxCell id="8buhsUW7cumHq8WopxRq-10" value="Просмотреть информацию о приложении" style="ellipse;whiteSpace=wrap;html=1;" parent="1" vertex="1">
          <mxGeometry x="714" y="287" width="120" height="80" as="geometry" />
        </mxCell>
        <mxCell id="8buhsUW7cumHq8WopxRq-11" value="Модератор" style="shape=umlActor;verticalLabelPosition=bottom;verticalAlign=top;html=1;outlineConnect=0;" parent="1" vertex="1">
          <mxGeometry x="546" y="440" width="30" height="60" as="geometry" />
        </mxCell>
        <mxCell id="8buhsUW7cumHq8WopxRq-12" value="Заблокировать пользователя" style="ellipse;whiteSpace=wrap;html=1;" parent="1" vertex="1">
          <mxGeometry x="403" y="548" width="120" height="80" as="geometry" />
        </mxCell>
        <mxCell id="8buhsUW7cumHq8WopxRq-13" value="Удалить проект" style="ellipse;whiteSpace=wrap;html=1;" parent="1" vertex="1">
          <mxGeometry x="552" y="555" width="120" height="80" as="geometry" />
        </mxCell>
        <mxCell id="8buhsUW7cumHq8WopxRq-14" value="Просмотреть информацию" style="ellipse;whiteSpace=wrap;html=1;" parent="1" vertex="1">
          <mxGeometry x="681" y="511" width="120" height="80" as="geometry" />
        </mxCell>
        <mxCell id="8buhsUW7cumHq8WopxRq-15" value="О пользователе" style="ellipse;whiteSpace=wrap;html=1;" parent="1" vertex="1">
          <mxGeometry x="841" y="570" width="120" height="80" as="geometry" />
        </mxCell>
        <mxCell id="8buhsUW7cumHq8WopxRq-16" value="О проекте" style="ellipse;whiteSpace=wrap;html=1;" parent="1" vertex="1">
          <mxGeometry x="893" y="485" width="120" height="80" as="geometry" />
        </mxCell>
        <mxCell id="8buhsUW7cumHq8WopxRq-17" value="Удалить учетную запись" style="ellipse;whiteSpace=wrap;html=1;" parent="1" vertex="1">
          <mxGeometry x="721" y="-9" width="120" height="80" as="geometry" />
        </mxCell>
        <mxCell id="8buhsUW7cumHq8WopxRq-18" value="Удалить задачу" style="ellipse;whiteSpace=wrap;html=1;" parent="1" vertex="1">
          <mxGeometry x="305" y="-103" width="120" height="80" as="geometry" />
        </mxCell>
        <mxCell id="8buhsUW7cumHq8WopxRq-19" value="Редактировать задачу" style="ellipse;whiteSpace=wrap;html=1;" parent="1" vertex="1">
          <mxGeometry x="176" y="-68" width="120" height="80" as="geometry" />
        </mxCell>
        <mxCell id="8buhsUW7cumHq8WopxRq-20" value="Назначить роль участнику" style="ellipse;whiteSpace=wrap;html=1;" parent="1" vertex="1">
          <mxGeometry x="-471" y="194" width="120" height="80" as="geometry" />
        </mxCell>
        <mxCell id="8buhsUW7cumHq8WopxRq-21" value="Назначить ответственного за задачу" style="ellipse;whiteSpace=wrap;html=1;" parent="1" vertex="1">
          <mxGeometry x="-448" y="292" width="120" height="80" as="geometry" />
        </mxCell>
        <mxCell id="8buhsUW7cumHq8WopxRq-22" value="Менять роль участнику" style="ellipse;whiteSpace=wrap;html=1;" parent="1" vertex="1">
          <mxGeometry x="-321" y="351" width="120" height="80" as="geometry" />
        </mxCell>
        <mxCell id="8buhsUW7cumHq8WopxRq-23" value="Удалить проект" style="ellipse;whiteSpace=wrap;html=1;" parent="1" vertex="1">
          <mxGeometry x="-263" y="46" width="120" height="80" as="geometry" />
        </mxCell>
        <mxCell id="8buhsUW7cumHq8WopxRq-24" value="Добавить описание проекта" style="ellipse;whiteSpace=wrap;html=1;" parent="1" vertex="1">
          <mxGeometry x="113" y="20" width="120" height="80" as="geometry" />
        </mxCell>
        <mxCell id="8buhsUW7cumHq8WopxRq-25" value="Изменить описание проекта" style="ellipse;whiteSpace=wrap;html=1;" parent="1" vertex="1">
          <mxGeometry x="48" y="-109" width="120" height="80" as="geometry" />
        </mxCell>
        <mxCell id="8buhsUW7cumHq8WopxRq-26" value="Создать голосование за изменение" style="ellipse;whiteSpace=wrap;html=1;" parent="1" vertex="1">
          <mxGeometry x="311" y="300" width="120" height="80" as="geometry" />
        </mxCell>
        <mxCell id="8buhsUW7cumHq8WopxRq-27" value="Добавить комментарий" style="ellipse;whiteSpace=wrap;html=1;" parent="1" vertex="1">
          <mxGeometry x="113" y="331" width="120" height="80" as="geometry" />
        </mxCell>
        <mxCell id="8buhsUW7cumHq8WopxRq-28" value="Удалить комментарий" style="ellipse;whiteSpace=wrap;html=1;" parent="1" vertex="1">
          <mxGeometry x="9" y="225" width="120" height="80" as="geometry" />
        </mxCell>
        <mxCell id="8buhsUW7cumHq8WopxRq-29" value="Изменить голосование за изменение" style="ellipse;whiteSpace=wrap;html=1;" parent="1" vertex="1">
          <mxGeometry x="144" y="426" width="120" height="80" as="geometry" />
        </mxCell>
        <mxCell id="8buhsUW7cumHq8WopxRq-30" value="Завершить голосование за изменение" style="ellipse;whiteSpace=wrap;html=1;" parent="1" vertex="1">
          <mxGeometry x="244" y="520" width="120" height="80" as="geometry" />
        </mxCell>
        <mxCell id="8buhsUW7cumHq8WopxRq-31" value="Удалить голосование за изменение" style="ellipse;whiteSpace=wrap;html=1;" parent="1" vertex="1">
          <mxGeometry x="394" y="450" width="120" height="80" as="geometry" />
        </mxCell>
        <mxCell id="8buhsUW7cumHq8WopxRq-32" value="Редактировать профиль" style="ellipse;whiteSpace=wrap;html=1;" parent="1" vertex="1">
          <mxGeometry x="458" y="53" width="120" height="80" as="geometry" />
        </mxCell>
        <mxCell id="3C4AGRFItX51HZg-2ZFR-1" value="Добавить права пользователю" style="ellipse;whiteSpace=wrap;html=1;" parent="1" vertex="1">
          <mxGeometry x="-378" y="120" width="120" height="80" as="geometry" />
        </mxCell>
        <mxCell id="3C4AGRFItX51HZg-2ZFR-2" value="Создать отдел" style="ellipse;whiteSpace=wrap;html=1;" parent="1" vertex="1">
          <mxGeometry x="-118" y="262" width="120" height="80" as="geometry" />
        </mxCell>
        <mxCell id="3C4AGRFItX51HZg-2ZFR-3" value="Добавить название отдела" style="ellipse;whiteSpace=wrap;html=1;" parent="1" vertex="1">
          <mxGeometry x="-181" y="400" width="120" height="80" as="geometry" />
        </mxCell>
        <mxCell id="3C4AGRFItX51HZg-2ZFR-4" value="Добавить участника в отдел" style="ellipse;whiteSpace=wrap;html=1;" parent="1" vertex="1">
          <mxGeometry x="-42" y="398" width="120" height="80" as="geometry" />
        </mxCell>
        <mxCell id="3C4AGRFItX51HZg-2ZFR-5" value="" style="endArrow=none;html=1;rounded=0;entryX=0.5;entryY=1;entryDx=0;entryDy=0;" parent="1" target="8buhsUW7cumHq8WopxRq-8" edge="1">
          <mxGeometry width="50" height="50" relative="1" as="geometry">
            <mxPoint x="628" y="240" as="sourcePoint" />
            <mxPoint x="571" y="215" as="targetPoint" />
          </mxGeometry>
        </mxCell>
        <mxCell id="3C4AGRFItX51HZg-2ZFR-6" value="" style="endArrow=none;html=1;rounded=0;entryX=0;entryY=0.5;entryDx=0;entryDy=0;" parent="1" target="8buhsUW7cumHq8WopxRq-9" edge="1">
          <mxGeometry width="50" height="50" relative="1" as="geometry">
            <mxPoint x="629" y="239" as="sourcePoint" />
            <mxPoint x="571" y="215" as="targetPoint" />
          </mxGeometry>
        </mxCell>
        <mxCell id="3C4AGRFItX51HZg-2ZFR-7" value="" style="endArrow=none;html=1;rounded=0;entryX=0;entryY=0.5;entryDx=0;entryDy=0;" parent="1" target="8buhsUW7cumHq8WopxRq-10" edge="1">
          <mxGeometry width="50" height="50" relative="1" as="geometry">
            <mxPoint x="629" y="239" as="sourcePoint" />
            <mxPoint x="571" y="215" as="targetPoint" />
          </mxGeometry>
        </mxCell>
        <mxCell id="3C4AGRFItX51HZg-2ZFR-8" value="&amp;lt;&amp;lt;include&amp;gt;&amp;gt;" style="endArrow=open;endSize=12;dashed=1;html=1;rounded=0;entryX=0;entryY=1;entryDx=0;entryDy=0;exitX=0.789;exitY=0.098;exitDx=0;exitDy=0;exitPerimeter=0;" parent="1" source="8buhsUW7cumHq8WopxRq-8" target="8buhsUW7cumHq8WopxRq-17" edge="1">
          <mxGeometry width="160" relative="1" as="geometry">
            <mxPoint x="410" y="69" as="sourcePoint" />
            <mxPoint x="570" y="69" as="targetPoint" />
          </mxGeometry>
        </mxCell>
        <mxCell id="3C4AGRFItX51HZg-2ZFR-9" value="" style="endArrow=none;html=1;rounded=0;" parent="1" source="8buhsUW7cumHq8WopxRq-12" edge="1">
          <mxGeometry width="50" height="50" relative="1" as="geometry">
            <mxPoint x="508" y="585" as="sourcePoint" />
            <mxPoint x="556" y="525" as="targetPoint" />
          </mxGeometry>
        </mxCell>
        <mxCell id="3C4AGRFItX51HZg-2ZFR-10" value="" style="endArrow=none;html=1;rounded=0;" parent="1" source="8buhsUW7cumHq8WopxRq-13" edge="1">
          <mxGeometry width="50" height="50" relative="1" as="geometry">
            <mxPoint x="508" y="585" as="sourcePoint" />
            <mxPoint x="555" y="525" as="targetPoint" />
          </mxGeometry>
        </mxCell>
        <mxCell id="3C4AGRFItX51HZg-2ZFR-11" value="" style="endArrow=none;html=1;rounded=0;exitX=0;exitY=0.5;exitDx=0;exitDy=0;" parent="1" source="8buhsUW7cumHq8WopxRq-14" edge="1">
          <mxGeometry width="50" height="50" relative="1" as="geometry">
            <mxPoint x="708" y="611" as="sourcePoint" />
            <mxPoint x="556" y="525" as="targetPoint" />
          </mxGeometry>
        </mxCell>
        <mxCell id="3C4AGRFItX51HZg-2ZFR-12" value="&amp;lt;&amp;lt;include&amp;gt;&amp;gt;" style="endArrow=open;endSize=12;dashed=1;html=1;rounded=0;entryX=0.03;entryY=0.665;entryDx=0;entryDy=0;exitX=0.789;exitY=0.098;exitDx=0;exitDy=0;exitPerimeter=0;entryPerimeter=0;" parent="1" target="8buhsUW7cumHq8WopxRq-16" edge="1">
          <mxGeometry width="160" relative="1" as="geometry">
            <mxPoint x="801" y="552" as="sourcePoint" />
            <mxPoint x="846" y="500" as="targetPoint" />
          </mxGeometry>
        </mxCell>
        <mxCell id="3C4AGRFItX51HZg-2ZFR-13" value="&amp;lt;&amp;lt;include&amp;gt;&amp;gt;" style="endArrow=open;endSize=12;dashed=1;html=1;rounded=0;entryX=0;entryY=0.5;entryDx=0;entryDy=0;exitX=0.789;exitY=0.098;exitDx=0;exitDy=0;exitPerimeter=0;" parent="1" target="8buhsUW7cumHq8WopxRq-15" edge="1">
          <mxGeometry width="160" relative="1" as="geometry">
            <mxPoint x="801" y="553" as="sourcePoint" />
            <mxPoint x="846" y="501" as="targetPoint" />
          </mxGeometry>
        </mxCell>
        <mxCell id="3C4AGRFItX51HZg-2ZFR-14" value="" style="endArrow=none;html=1;rounded=0;entryX=0;entryY=1;entryDx=0;entryDy=0;" parent="1" source="8buhsUW7cumHq8WopxRq-2" target="8buhsUW7cumHq8WopxRq-32" edge="1">
          <mxGeometry width="50" height="50" relative="1" as="geometry">
            <mxPoint x="344" y="117" as="sourcePoint" />
            <mxPoint x="394" y="67" as="targetPoint" />
          </mxGeometry>
        </mxCell>
        <mxCell id="3C4AGRFItX51HZg-2ZFR-15" value="" style="endArrow=none;html=1;rounded=0;entryX=0.5;entryY=1;entryDx=0;entryDy=0;" parent="1" source="8buhsUW7cumHq8WopxRq-2" target="8buhsUW7cumHq8WopxRq-6" edge="1">
          <mxGeometry width="50" height="50" relative="1" as="geometry">
            <mxPoint x="344" y="117" as="sourcePoint" />
            <mxPoint x="394" y="67" as="targetPoint" />
          </mxGeometry>
        </mxCell>
        <mxCell id="3C4AGRFItX51HZg-2ZFR-16" value="&amp;lt;&amp;lt;extend&amp;gt;&amp;gt;" style="endArrow=open;endSize=12;dashed=1;html=1;rounded=0;exitX=1;exitY=1;exitDx=0;exitDy=0;" parent="1" source="8buhsUW7cumHq8WopxRq-19" target="8buhsUW7cumHq8WopxRq-6" edge="1">
          <mxGeometry width="160" relative="1" as="geometry">
            <mxPoint x="704" y="121" as="sourcePoint" />
            <mxPoint x="749" y="69" as="targetPoint" />
          </mxGeometry>
        </mxCell>
        <mxCell id="3C4AGRFItX51HZg-2ZFR-17" value="&amp;lt;&amp;lt;extend&amp;gt;&amp;gt;" style="endArrow=open;endSize=12;dashed=1;html=1;rounded=0;exitX=0;exitY=1;exitDx=0;exitDy=0;" parent="1" source="8buhsUW7cumHq8WopxRq-7" target="8buhsUW7cumHq8WopxRq-6" edge="1">
          <mxGeometry width="160" relative="1" as="geometry">
            <mxPoint x="288" y="10" as="sourcePoint" />
            <mxPoint x="343" y="43" as="targetPoint" />
          </mxGeometry>
        </mxCell>
        <mxCell id="3C4AGRFItX51HZg-2ZFR-18" value="&amp;lt;&amp;lt;include&amp;gt;&amp;gt;" style="endArrow=open;endSize=12;dashed=1;html=1;rounded=0;entryX=0;entryY=1;entryDx=0;entryDy=0;exitX=0.5;exitY=0;exitDx=0;exitDy=0;" parent="1" source="8buhsUW7cumHq8WopxRq-6" edge="1">
          <mxGeometry width="160" relative="1" as="geometry">
            <mxPoint x="321" y="29" as="sourcePoint" />
            <mxPoint x="366" y="-23" as="targetPoint" />
          </mxGeometry>
        </mxCell>
        <mxCell id="3C4AGRFItX51HZg-2ZFR-20" value="" style="endArrow=none;html=1;rounded=0;entryX=1;entryY=0;entryDx=0;entryDy=0;" parent="1" target="8buhsUW7cumHq8WopxRq-4" edge="1">
          <mxGeometry width="50" height="50" relative="1" as="geometry">
            <mxPoint x="-159" y="176" as="sourcePoint" />
            <mxPoint x="8" y="171" as="targetPoint" />
          </mxGeometry>
        </mxCell>
        <mxCell id="3C4AGRFItX51HZg-2ZFR-21" value="" style="endArrow=none;html=1;rounded=0;exitX=0.986;exitY=0.353;exitDx=0;exitDy=0;exitPerimeter=0;" parent="1" source="8buhsUW7cumHq8WopxRq-26" edge="1">
          <mxGeometry width="50" height="50" relative="1" as="geometry">
            <mxPoint x="-116" y="-285" as="sourcePoint" />
            <mxPoint x="416" y="261" as="targetPoint" />
          </mxGeometry>
        </mxCell>
        <mxCell id="3C4AGRFItX51HZg-2ZFR-22" value="" style="endArrow=none;html=1;rounded=0;exitX=0;exitY=0;exitDx=0;exitDy=0;" parent="1" source="3C4AGRFItX51HZg-2ZFR-2" edge="1">
          <mxGeometry width="50" height="50" relative="1" as="geometry">
            <mxPoint x="-43" y="359" as="sourcePoint" />
            <mxPoint x="-127" y="241" as="targetPoint" />
          </mxGeometry>
        </mxCell>
        <mxCell id="3C4AGRFItX51HZg-2ZFR-24" value="&amp;lt;&amp;lt;extend&amp;gt;&amp;gt;" style="endArrow=open;endSize=12;dashed=1;html=1;rounded=0;exitX=0.5;exitY=1;exitDx=0;exitDy=0;entryX=0.5;entryY=0;entryDx=0;entryDy=0;" parent="1" target="8buhsUW7cumHq8WopxRq-24" edge="1" source="8buhsUW7cumHq8WopxRq-25">
          <mxGeometry width="160" relative="1" as="geometry">
            <mxPoint x="76" y="-15" as="sourcePoint" />
            <mxPoint x="130" y="18" as="targetPoint" />
          </mxGeometry>
        </mxCell>
        <mxCell id="3C4AGRFItX51HZg-2ZFR-25" value="&amp;lt;&amp;lt;include&amp;gt;&amp;gt;" style="endArrow=open;endSize=12;dashed=1;html=1;rounded=0;entryX=1;entryY=1;entryDx=0;entryDy=0;exitX=0.5;exitY=0;exitDx=0;exitDy=0;" parent="1" source="8buhsUW7cumHq8WopxRq-3" target="8buhsUW7cumHq8WopxRq-24" edge="1">
          <mxGeometry width="160" relative="1" as="geometry">
            <mxPoint x="177" y="155" as="sourcePoint" />
            <mxPoint x="255" y="130" as="targetPoint" />
          </mxGeometry>
        </mxCell>
        <mxCell id="3C4AGRFItX51HZg-2ZFR-26" value="&amp;lt;&amp;lt;include&amp;gt;&amp;gt;" style="endArrow=open;endSize=12;dashed=1;html=1;rounded=0;entryX=0.5;entryY=0;entryDx=0;entryDy=0;exitX=1;exitY=1;exitDx=0;exitDy=0;" parent="1" target="8buhsUW7cumHq8WopxRq-31" edge="1" source="8buhsUW7cumHq8WopxRq-26">
          <mxGeometry width="160" relative="1" as="geometry">
            <mxPoint x="-343" y="-196" as="sourcePoint" />
            <mxPoint x="-265" y="-221" as="targetPoint" />
          </mxGeometry>
        </mxCell>
        <mxCell id="3C4AGRFItX51HZg-2ZFR-27" value="&amp;lt;&amp;lt;include&amp;gt;&amp;gt;" style="endArrow=open;endSize=12;dashed=1;html=1;rounded=0;entryX=0.5;entryY=0;entryDx=0;entryDy=0;exitX=0.5;exitY=0;exitDx=0;exitDy=0;" parent="1" target="3C4AGRFItX51HZg-2ZFR-3" edge="1">
          <mxGeometry width="160" relative="1" as="geometry">
            <mxPoint x="-52" y="342" as="sourcePoint" />
            <mxPoint x="2" y="378" as="targetPoint" />
          </mxGeometry>
        </mxCell>
        <mxCell id="3C4AGRFItX51HZg-2ZFR-28" value="&amp;lt;&amp;lt;include&amp;gt;&amp;gt;" style="endArrow=open;endSize=12;dashed=1;html=1;rounded=0;entryX=0;entryY=0;entryDx=0;entryDy=0;exitX=0.5;exitY=1;exitDx=0;exitDy=0;" parent="1" source="3C4AGRFItX51HZg-2ZFR-2" target="3C4AGRFItX51HZg-2ZFR-4" edge="1">
          <mxGeometry width="160" relative="1" as="geometry">
            <mxPoint x="-42" y="352" as="sourcePoint" />
            <mxPoint x="-71" y="388" as="targetPoint" />
          </mxGeometry>
        </mxCell>
        <mxCell id="3C4AGRFItX51HZg-2ZFR-29" value="&amp;lt;&amp;lt;include&amp;gt;&amp;gt;" style="endArrow=open;endSize=12;dashed=1;html=1;rounded=0;entryX=1;entryY=0.5;entryDx=0;entryDy=0;exitX=0;exitY=0.5;exitDx=0;exitDy=0;" parent="1" source="8buhsUW7cumHq8WopxRq-26" target="8buhsUW7cumHq8WopxRq-27" edge="1">
          <mxGeometry width="160" relative="1" as="geometry">
            <mxPoint x="-115" y="-154" as="sourcePoint" />
            <mxPoint x="-130" y="-91" as="targetPoint" />
          </mxGeometry>
        </mxCell>
        <mxCell id="3C4AGRFItX51HZg-2ZFR-30" value="&amp;lt;&amp;lt;include&amp;gt;&amp;gt;" style="endArrow=open;endSize=12;dashed=1;html=1;rounded=0;entryX=0.5;entryY=1;entryDx=0;entryDy=0;exitX=0;exitY=0.5;exitDx=0;exitDy=0;" parent="1" source="8buhsUW7cumHq8WopxRq-27" target="8buhsUW7cumHq8WopxRq-28" edge="1">
          <mxGeometry width="160" relative="1" as="geometry">
            <mxPoint x="-105" y="-144" as="sourcePoint" />
            <mxPoint x="-120" y="-81" as="targetPoint" />
          </mxGeometry>
        </mxCell>
        <mxCell id="3C4AGRFItX51HZg-2ZFR-31" value="&amp;lt;&amp;lt;extend&amp;gt;&amp;gt;" style="endArrow=open;endSize=12;dashed=1;html=1;rounded=0;exitX=1;exitY=0;exitDx=0;exitDy=0;entryX=0;entryY=1;entryDx=0;entryDy=0;" parent="1" source="8buhsUW7cumHq8WopxRq-29" target="8buhsUW7cumHq8WopxRq-26" edge="1">
          <mxGeometry width="160" relative="1" as="geometry">
            <mxPoint x="-344.5" y="-292" as="sourcePoint" />
            <mxPoint x="-321.5" y="-253" as="targetPoint" />
          </mxGeometry>
        </mxCell>
        <mxCell id="3C4AGRFItX51HZg-2ZFR-32" value="&amp;lt;&amp;lt;include&amp;gt;&amp;gt;" style="endArrow=open;endSize=12;dashed=1;html=1;rounded=0;entryX=0.5;entryY=0;entryDx=0;entryDy=0;exitX=0.304;exitY=0.96;exitDx=0;exitDy=0;exitPerimeter=0;" parent="1" source="8buhsUW7cumHq8WopxRq-26" target="8buhsUW7cumHq8WopxRq-30" edge="1">
          <mxGeometry width="160" relative="1" as="geometry">
            <mxPoint x="-333" y="-186" as="sourcePoint" />
            <mxPoint x="-257" y="-154" as="targetPoint" />
          </mxGeometry>
        </mxCell>
        <mxCell id="3C4AGRFItX51HZg-2ZFR-33" value="&amp;lt;&amp;lt;extend&amp;gt;&amp;gt;" style="endArrow=open;endSize=12;dashed=1;html=1;rounded=0;exitX=1;exitY=0.5;exitDx=0;exitDy=0;entryX=1;entryY=1;entryDx=0;entryDy=0;" parent="1" source="8buhsUW7cumHq8WopxRq-22" target="8buhsUW7cumHq8WopxRq-4" edge="1">
          <mxGeometry width="160" relative="1" as="geometry">
            <mxPoint x="-381" y="334" as="sourcePoint" />
            <mxPoint x="-296" y="308" as="targetPoint" />
          </mxGeometry>
        </mxCell>
        <mxCell id="3C4AGRFItX51HZg-2ZFR-34" value="&amp;lt;&amp;lt;include&amp;gt;&amp;gt;" style="endArrow=open;endSize=12;dashed=1;html=1;rounded=0;exitX=0;exitY=1;exitDx=0;exitDy=0;entryX=1;entryY=0.5;entryDx=0;entryDy=0;" parent="1" source="8buhsUW7cumHq8WopxRq-4" target="8buhsUW7cumHq8WopxRq-21" edge="1">
          <mxGeometry width="160" relative="1" as="geometry">
            <mxPoint x="-314" y="280" as="sourcePoint" />
            <mxPoint x="-339" y="360" as="targetPoint" />
          </mxGeometry>
        </mxCell>
        <mxCell id="3C4AGRFItX51HZg-2ZFR-35" value="&amp;lt;&amp;lt;include&amp;gt;&amp;gt;" style="endArrow=open;endSize=12;dashed=1;html=1;rounded=0;entryX=1;entryY=0.5;entryDx=0;entryDy=0;exitX=0;exitY=0.5;exitDx=0;exitDy=0;" parent="1" source="8buhsUW7cumHq8WopxRq-4" target="8buhsUW7cumHq8WopxRq-20" edge="1">
          <mxGeometry width="160" relative="1" as="geometry">
            <mxPoint x="-310" y="135" as="sourcePoint" />
            <mxPoint x="-402" y="116" as="targetPoint" />
          </mxGeometry>
        </mxCell>
        <mxCell id="3C4AGRFItX51HZg-2ZFR-36" value="&amp;lt;&amp;lt;include&amp;gt;&amp;gt;" style="endArrow=open;endSize=12;dashed=1;html=1;rounded=0;entryX=1;entryY=1;entryDx=0;entryDy=0;exitX=0.3;exitY=0.031;exitDx=0;exitDy=0;exitPerimeter=0;" parent="1" source="8buhsUW7cumHq8WopxRq-4" target="3C4AGRFItX51HZg-2ZFR-1" edge="1">
          <mxGeometry width="160" relative="1" as="geometry">
            <mxPoint x="-292" y="107" as="sourcePoint" />
            <mxPoint x="-370" y="57" as="targetPoint" />
          </mxGeometry>
        </mxCell>
        <mxCell id="xcAnMff6s-fbYhxJQ3BK-1" value="" style="endArrow=block;endSize=16;endFill=0;html=1;rounded=0;" parent="1" edge="1">
          <mxGeometry width="160" relative="1" as="geometry">
            <mxPoint x="476" y="199" as="sourcePoint" />
            <mxPoint x="581" y="273" as="targetPoint" />
          </mxGeometry>
        </mxCell>
        <mxCell id="xcAnMff6s-fbYhxJQ3BK-2" value="" style="endArrow=block;endSize=16;endFill=0;html=1;rounded=0;" parent="1" edge="1">
          <mxGeometry width="160" relative="1" as="geometry">
            <mxPoint x="-91" y="173" as="sourcePoint" />
            <mxPoint x="353" y="224" as="targetPoint" />
          </mxGeometry>
        </mxCell>
        <mxCell id="xcAnMff6s-fbYhxJQ3BK-3" value="" style="endArrow=block;endSize=16;endFill=0;html=1;rounded=0;" parent="1" edge="1">
          <mxGeometry width="160" relative="1" as="geometry">
            <mxPoint x="540" y="443" as="sourcePoint" />
            <mxPoint x="478" y="261" as="targetPoint" />
          </mxGeometry>
        </mxCell>
        <mxCell id="xcAnMff6s-fbYhxJQ3BK-4" value="" style="endArrow=none;html=1;rounded=0;exitX=1;exitY=1;exitDx=0;exitDy=0;" parent="1" source="8buhsUW7cumHq8WopxRq-3" edge="1">
          <mxGeometry width="50" height="50" relative="1" as="geometry">
            <mxPoint x="220" y="204" as="sourcePoint" />
            <mxPoint x="396" y="190" as="targetPoint" />
          </mxGeometry>
        </mxCell>
        <mxCell id="M7DzUa9jKH-0Ac_kstGr-1" value="" style="endArrow=none;html=1;rounded=0;entryX=0.5;entryY=1;entryDx=0;entryDy=0;" edge="1" parent="1" target="8buhsUW7cumHq8WopxRq-23">
          <mxGeometry width="50" height="50" relative="1" as="geometry">
            <mxPoint x="-159" y="177" as="sourcePoint" />
            <mxPoint x="-134" y="179" as="targetPoint" />
          </mxGeometry>
        </mxCell>
      </root>
    </mxGraphModel>
  </diagram>
</mxfile>
